<svg width="13" height="16" viewBox="0 0 13 16" fill="none" xmlns="http://www.w3.org/2000/svg">
<path d="M10.3898 8.90977C9.95651 9.77643 9.33984 10.7264 8.53984 11.7598C7.90651 12.5931 7.22318 13.3931 6.48984 14.1598C5.75651 13.3931 5.07318 12.5931 4.43984 11.7598C3.63984 10.7264 3.02318 9.77643 2.58984 8.90977C2.05651 7.8431 1.78984 6.90143 1.78984 6.08477C1.78984 5.2681 1.99818 4.50143 2.41484 3.78477C2.83151 3.0681 3.40651 2.50143 4.13984 2.08477C4.87318 1.6681 5.65651 1.45977 6.48984 1.45977C7.32318 1.45977 8.10651 1.6681 8.83984 2.08477C9.57318 2.50143 10.1482 3.0681 10.5648 3.78477C10.9815 4.50143 11.1898 5.2681 11.1898 6.08477C11.1898 6.90143 10.9232 7.8431 10.3898 8.90977ZM6.48984 15.5098C6.78984 15.2098 7.08984 14.9098 7.38984 14.6098C8.08984 13.8764 8.72318 13.1264 9.28984 12.3598C10.1232 11.2598 10.7732 10.2431 11.2398 9.30977C11.8398 8.10977 12.1398 7.0431 12.1398 6.10977C12.1398 5.10977 11.8815 4.17643 11.3648 3.30977C10.8482 2.4431 10.1648 1.75977 9.31484 1.25977C8.46484 0.759766 7.52318 0.509766 6.48984 0.509766C5.45651 0.509766 4.51484 0.759766 3.66484 1.25977C2.81484 1.75977 2.13151 2.4431 1.61484 3.30977C1.09818 4.17643 0.839844 5.10977 0.839844 6.10977C0.839844 7.0431 1.13984 8.10977 1.73984 9.30977C2.20651 10.2431 2.85651 11.2598 3.68984 12.3598C4.25651 13.1264 4.88984 13.8764 5.58984 14.6098L6.48984 15.5098ZM6.48984 8.00977C5.95651 8.00977 5.51484 7.82643 5.16484 7.45977C4.81484 7.0931 4.63984 6.65143 4.63984 6.13477C4.63984 5.6181 4.81484 5.17643 5.16484 4.80977C5.51484 4.4431 5.95651 4.25977 6.48984 4.25977C7.02318 4.25977 7.47318 4.4431 7.83984 4.80977C8.20651 5.17643 8.38984 5.6181 8.38984 6.13477C8.38984 6.65143 8.20651 7.0931 7.83984 7.45977C7.47318 7.82643 7.02318 8.00977 6.48984 8.00977ZM6.48984 8.95977C7.25651 8.95977 7.91484 8.68477 8.46484 8.13477C9.01484 7.58477 9.28984 6.9181 9.28984 6.13477C9.28984 5.35143 9.01484 4.68477 8.46484 4.13477C7.91484 3.58477 7.25651 3.30977 6.48984 3.30977C5.72318 3.30977 5.06484 3.58477 4.51484 4.13477C3.96484 4.68477 3.68984 5.35143 3.68984 6.13477C3.68984 6.9181 3.96484 7.58477 4.51484 8.13477C5.06484 8.68477 5.72318 8.95977 6.48984 8.95977Z" fill="#FAA722"/>
</svg>
