<svg width="16" height="12" viewBox="0 0 16 12" fill="none" xmlns="http://www.w3.org/2000/svg">
<path d="M0.270508 2.25986C0.270508 1.72653 0.453841 1.27653 0.820508 0.909863C1.18717 0.543197 1.63717 0.359863 2.17051 0.359863H13.4205C13.9205 0.359863 14.3538 0.543197 14.7205 0.909863C15.0872 1.27653 15.2705 1.72653 15.2705 2.25986V9.75986C15.2705 10.2932 15.0872 10.7349 14.7205 11.0849C14.3538 11.4349 13.9038 11.6099 13.3705 11.6099H2.17051C1.63717 11.6099 1.18717 11.4349 0.820508 11.0849C0.453841 10.7349 0.270508 10.2932 0.270508 9.75986V2.25986ZM2.17051 1.30986C1.90384 1.30986 1.67884 1.40153 1.49551 1.58486C1.31217 1.7682 1.22051 1.9932 1.22051 2.25986V2.45986L7.77051 6.40986L14.3205 2.45986V2.25986C14.3205 1.9932 14.2288 1.7682 14.0455 1.58486C13.8622 1.40153 13.6538 1.30986 13.4205 1.30986H2.17051ZM14.3205 3.55986L9.92051 6.20986L14.3205 8.90986V3.55986ZM14.3205 10.0099L9.02051 6.75986L7.77051 7.50986L6.52051 6.75986L1.22051 10.0099C1.28717 10.2099 1.40384 10.3765 1.57051 10.5099C1.73717 10.6432 1.93717 10.7099 2.17051 10.7099H13.4205C13.6205 10.7099 13.8038 10.6432 13.9705 10.5099C14.1372 10.3765 14.2538 10.2099 14.3205 10.0099ZM1.22051 8.90986L5.62051 6.20986L1.22051 3.55986V8.90986Z" fill="#FAA722"/>
</svg>
