<svg width="15" height="15" viewBox="0 0 15 15" fill="none" xmlns="http://www.w3.org/2000/svg">
<path d="M14.5298 1.81016C14.6009 1.91683 14.6364 2.04128 14.6364 2.1835C14.6364 2.32572 14.6009 2.45016 14.5298 2.55683L13.4638 3.57016L11.4917 1.59683L12.5044 0.530164C12.611 0.423497 12.7354 0.370164 12.8775 0.370164C13.0197 0.370164 13.1263 0.423497 13.1973 0.530164L14.5298 1.81016ZM12.7709 4.2635L10.7455 2.29016L3.97643 9.11683C3.90536 9.15239 3.85206 9.20572 3.81653 9.27683L3.01703 11.7302C2.98149 11.8013 2.99926 11.8724 3.07033 11.9435C3.14139 12.0146 3.23023 12.0502 3.33683 12.0502L5.73533 11.1968C5.84193 11.1968 5.91299 11.1613 5.94853 11.0902L12.7709 4.2635ZM0.0322266 13.3835C0.0322266 13.8102 0.17436 14.1657 0.458627 14.4502C0.742893 14.7346 1.09823 14.8768 1.52463 14.8768H12.5044C12.9308 14.8768 13.2862 14.7346 13.5704 14.4502C13.8547 14.1657 13.9968 13.8102 13.9968 13.3835V7.41016C13.9968 7.26794 13.9524 7.1435 13.8636 7.03683C13.7747 6.93016 13.6593 6.87683 13.5171 6.87683C13.375 6.87683 13.2506 6.93016 13.144 7.03683C13.0374 7.1435 12.9841 7.26794 12.9841 7.41016V13.3835C13.0197 13.5257 12.9841 13.6413 12.8775 13.7302C12.7709 13.8191 12.6466 13.8635 12.5044 13.8635H1.52463C1.38249 13.8635 1.26701 13.8191 1.17818 13.7302C1.08934 13.6413 1.04493 13.5257 1.04493 13.3835V2.39683C1.04493 2.25461 1.08934 2.13016 1.17818 2.0235C1.26701 1.91683 1.38249 1.8635 1.52463 1.8635H8.02723C8.16936 1.8635 8.28484 1.81905 8.37368 1.73016C8.46251 1.64128 8.50693 1.52572 8.50693 1.3835C8.50693 1.24127 8.46251 1.12572 8.37368 1.03683C8.28484 0.947942 8.16936 0.903498 8.02723 0.903498H1.52463C1.09823 0.903498 0.742893 1.04572 0.458627 1.33016C0.17436 1.61461 0.0322266 1.97016 0.0322266 2.39683V13.3835Z" fill="#FAA722"/>
</svg>
