<svg width="19" height="18" viewBox="0 0 19 18" fill="none" xmlns="http://www.w3.org/2000/svg">
<path d="M2.38086 8.77003C2.38086 8.61892 2.42808 8.49614 2.52253 8.4017C2.61697 8.30725 2.73975 8.26003 2.89086 8.26003H15.4142L12.0709 4.9167C11.9575 4.80336 11.9009 4.67114 11.9009 4.52003C11.9009 4.36892 11.9575 4.24614 12.0709 4.1517C12.1842 4.05725 12.3164 4.01003 12.4675 4.01003C12.6186 4.01003 12.7509 4.04781 12.8642 4.12336L17.1142 8.37336C17.1897 8.4867 17.2275 8.61892 17.2275 8.77003C17.2275 8.92114 17.1897 9.05336 17.1142 9.1667L12.8642 13.4167C12.7509 13.4923 12.6186 13.53 12.4675 13.53C12.3164 13.53 12.1842 13.4828 12.0709 13.3884C11.9575 13.2939 11.9009 13.1711 11.9009 13.02C11.9009 12.8689 11.9575 12.7367 12.0709 12.6234L15.4142 9.28003H2.89086C2.73975 9.28003 2.61697 9.23281 2.52253 9.13836C2.42808 9.04392 2.38086 8.92114 2.38086 8.77003Z" fill="#0F0F0F"/>
</svg>
