<svg width="61" height="61" viewBox="0 0 61 61" fill="none" xmlns="http://www.w3.org/2000/svg">
<rect x="0.860352" y="0.509766" width="60" height="60" rx="30" fill="#FAA722" fill-opacity="0.32"/>
<g clip-path="url(#clip0_17_875)">
<path d="M24.3805 20.0506C24.1672 19.7838 23.9139 19.6504 23.6205 19.6504C23.3272 19.6504 23.0472 19.7571 22.7805 19.9706L21.2605 21.4912C20.8872 21.8647 20.6472 22.2915 20.5405 22.7717C20.4339 23.2519 20.4605 23.7055 20.6205 24.1323C21.9539 27.9205 24.0339 31.2286 26.8605 34.0564C29.6872 36.8843 32.9939 38.9651 36.7805 40.299C37.2072 40.4591 37.6605 40.4858 38.1405 40.3791C38.6205 40.2724 39.0472 40.0323 39.4205 39.6588L40.9405 38.1381C41.1539 37.8714 41.2605 37.5912 41.2605 37.2978C41.2605 37.0043 41.1272 36.7776 40.8605 36.6175L37.4205 33.8964C37.1539 33.6829 36.8605 33.6296 36.5405 33.7363L33.2605 34.5366C32.8339 34.6433 32.3939 34.63 31.9405 34.4966C31.4872 34.3632 31.1005 34.1365 30.7805 33.8163L27.1005 30.1348C26.7805 29.8147 26.5539 29.4278 26.4205 28.9743C26.2872 28.5208 26.2739 28.0806 26.3805 27.6538L27.1805 24.3724C27.2872 24.0523 27.2339 23.7588 27.0205 23.492L24.3805 20.0506ZM21.6605 18.8501C22.2472 18.2632 22.9272 17.9964 23.7005 18.0498C24.4739 18.1031 25.1005 18.4499 25.5805 19.0902L28.3005 22.5316C28.5672 22.8518 28.7405 23.2119 28.8205 23.6121C28.9005 24.0122 28.8872 24.3991 28.7805 24.7726L27.9805 28.0539C27.8739 28.4274 27.9539 28.7476 28.2205 29.0143L31.9005 32.6959C32.1672 32.9626 32.4872 33.0427 32.8605 32.936L36.1405 32.1356C36.5139 32.0289 36.9005 32.0156 37.3005 32.0956C37.7005 32.1756 38.0605 32.3491 38.3805 32.6158L41.8205 35.337C42.4605 35.8172 42.8072 36.4441 42.8605 37.2177C42.9139 37.9914 42.6472 38.6717 42.0605 39.2586L40.5405 40.7792C39.9539 41.3661 39.2739 41.753 38.5005 41.9397C37.7272 42.1265 36.9672 42.0864 36.2205 41.8197C32.2205 40.4324 28.7139 38.2315 25.7005 35.2169C22.6872 32.2023 20.4872 28.6942 19.1005 24.6925C18.8339 23.9456 18.7939 23.1852 18.9805 22.4116C19.1672 21.6379 19.5539 20.9576 20.1405 20.3707L21.6605 18.8501ZM37.5805 19.5704C37.7939 19.5704 37.9805 19.6371 38.1405 19.7705C38.3005 19.9039 38.3805 20.0773 38.3805 20.2907V22.5316H40.6205C40.8339 22.5316 41.0072 22.6117 41.1405 22.7717C41.2739 22.9318 41.3405 23.1185 41.3405 23.332C41.3405 23.5454 41.2739 23.7188 41.1405 23.8522C41.0072 23.9856 40.8339 24.0523 40.6205 24.0523H38.3805V26.2932C38.3805 26.5066 38.3005 26.6934 38.1405 26.8534C37.9805 27.0135 37.7939 27.0802 37.5805 27.0535C37.3672 27.0268 37.1939 26.9468 37.0605 26.8134C36.9272 26.68 36.8605 26.5066 36.8605 26.2932V24.0523H34.6205C34.4072 24.0523 34.2205 23.9856 34.0605 23.8522C33.9005 23.7188 33.8339 23.5454 33.8605 23.332C33.8872 23.1185 33.9672 22.9318 34.1005 22.7717C34.2339 22.6117 34.4072 22.5316 34.6205 22.5316H36.8605V20.2907C36.8605 20.0773 36.9272 19.9039 37.0605 19.7705C37.1939 19.6371 37.3672 19.5704 37.5805 19.5704Z" fill="#FAA722"/>
</g>
<defs>
<clipPath id="clip0_17_875">
<rect width="24" height="24.01" fill="white" transform="matrix(1 0 0 -1 18.8604 42.0598)"/>
</clipPath>
</defs>
</svg>
