<svg width="20" height="21" viewBox="0 0 20 21" fill="none" xmlns="http://www.w3.org/2000/svg">
<rect x="-0.00976562" y="0.359924" width="20" height="20" rx="10" fill="#FAA722"/>
<path d="M13.0366 7.71298C13.2055 7.544 13.4061 7.45951 13.6383 7.45951C13.8705 7.45951 14.0711 7.544 14.24 7.71298C14.4088 7.88196 14.5038 8.09318 14.525 8.34665C14.5461 8.60011 14.4722 8.81134 14.3033 8.98031L9.55329 14.8734C9.38441 15.0846 9.17329 15.1902 8.91996 15.1902C8.66663 15.1902 8.45552 15.1058 8.28663 14.9368L5.11996 11.7684C4.86663 11.5572 4.78218 11.2721 4.86663 10.913C4.95107 10.5539 5.16218 10.3321 5.49996 10.2476C5.83774 10.1632 6.13329 10.2476 6.38663 10.5011L8.85663 13.0358L13.0366 7.71298Z" fill="white"/>
</svg>
