<svg width="21" height="17" viewBox="0 0 21 17" fill="none" xmlns="http://www.w3.org/2000/svg">
<path d="M18.7637 4.47852C18.7637 4.67383 18.7637 4.83008 18.7637 5.02539C18.7637 10.4551 14.6621 16.666 7.12305 16.666C4.7793 16.666 2.63086 16.002 0.833984 14.8301C1.14648 14.8691 1.45898 14.9082 1.81055 14.9082C3.72461 14.9082 5.48242 14.2441 6.88867 13.1504C5.0918 13.1113 3.56836 11.9395 3.06055 10.2988C3.33398 10.3379 3.56836 10.377 3.8418 10.377C4.19336 10.377 4.58398 10.2988 4.89648 10.2207C3.02148 9.83008 1.61523 8.18945 1.61523 6.19727V6.1582C2.16211 6.4707 2.82617 6.62695 3.49023 6.66602C2.35742 5.92383 1.6543 4.67383 1.6543 3.26758C1.6543 2.48633 1.84961 1.7832 2.20117 1.19727C4.23242 3.6582 7.2793 5.29883 10.6777 5.49414C10.5996 5.18164 10.5605 4.86914 10.5605 4.55664C10.5605 2.29102 12.3965 0.455078 14.6621 0.455078C15.834 0.455078 16.8887 0.923828 17.6699 1.74414C18.5684 1.54883 19.4668 1.19727 20.248 0.728516C19.9355 1.70508 19.3105 2.48633 18.4512 2.99414C19.2715 2.91602 20.0918 2.68164 20.7949 2.36914C20.248 3.18945 19.5449 3.89258 18.7637 4.47852Z" fill="#FAA722"/>
</svg>
