<svg width="18" height="18" viewBox="0 0 18 18" fill="none" xmlns="http://www.w3.org/2000/svg">
<path d="M1.58203 9.44996C1.58203 9.29885 1.62925 9.17607 1.7237 9.08163C1.81814 8.98718 1.94092 8.93996 2.09203 8.93996H14.6154L11.272 5.59663C11.1587 5.48329 11.102 5.35107 11.102 5.19996C11.102 5.04885 11.1587 4.92607 11.272 4.83163C11.3854 4.73718 11.5176 4.68996 11.6687 4.68996C11.8198 4.68996 11.952 4.72774 12.0654 4.80329L16.3154 9.05329C16.3909 9.16663 16.4287 9.29885 16.4287 9.44996C16.4287 9.60107 16.3909 9.73329 16.3154 9.84663L12.0654 14.0966C11.952 14.1722 11.8198 14.21 11.6687 14.21C11.5176 14.21 11.3854 14.1627 11.272 14.0683C11.1587 13.9738 11.102 13.8511 11.102 13.7C11.102 13.5488 11.1587 13.4166 11.272 13.3033L14.6154 9.95996H2.09203C1.94092 9.95996 1.81814 9.91274 1.7237 9.81829C1.62925 9.72385 1.58203 9.60107 1.58203 9.44996Z" fill="white"/>
</svg>
