<svg width="17" height="17" viewBox="0 0 17 17" fill="none" xmlns="http://www.w3.org/2000/svg">
<path d="M8.01452 8.89515C8.83179 8.89515 9.53357 8.602 10.1199 8.0157C10.7062 7.4294 10.9993 6.71873 10.9993 5.8837C10.9993 5.04866 10.7062 4.34688 10.1199 3.77835C9.53357 3.20981 8.83179 2.91666 8.01452 2.8989C7.19726 2.88113 6.49547 3.1654 5.90917 3.7517C5.32287 4.338 5.02972 5.04866 5.02972 5.8837C5.02972 6.71873 5.32287 7.4294 5.90917 8.0157C6.49547 8.602 7.19726 8.89515 8.01452 8.89515ZM10.0399 5.91035C10.0399 6.44335 9.84449 6.90528 9.45362 7.29615C9.06276 7.68701 8.58306 7.88245 8.01452 7.88245C7.44599 7.88245 6.96629 7.68701 6.57542 7.29615C6.18456 6.90528 5.99801 6.43446 6.01577 5.8837C6.03354 5.33293 6.22897 4.86211 6.60207 4.47125C6.97517 4.08038 7.44599 3.88495 8.01452 3.88495C8.58306 3.88495 9.06276 4.08038 9.45362 4.47125C9.84449 4.86211 10.0399 5.34181 10.0399 5.91035ZM14.0374 13.9053C14.0374 14.1896 13.9575 14.4028 13.7976 14.5449C13.6377 14.6871 13.4689 14.7937 13.2912 14.8647H13.0247H3.00432H2.73782C2.56016 14.7937 2.40026 14.6871 2.25812 14.5449C2.11599 14.4028 2.04492 14.1896 2.04492 13.9053C2.04492 13.4434 2.18706 12.9459 2.47132 12.4129C2.86219 11.7023 3.44849 11.1337 4.23022 10.7073C5.22516 10.1743 6.48659 9.90785 8.01452 9.90785C9.54246 9.90785 10.8039 10.1743 11.7988 10.7073C12.5806 11.1337 13.1669 11.7023 13.5577 12.4129C13.8775 12.9459 14.0374 13.4434 14.0374 13.9053ZM13.0247 13.9053C13.0247 13.6921 12.9714 13.4612 12.8648 13.2124C12.6872 12.8571 12.4562 12.5195 12.1719 12.1997C11.7811 11.8444 11.3014 11.5424 10.7328 11.2936C9.95109 11.0094 9.04499 10.8672 8.01452 10.8672C6.98406 10.8672 6.07796 11.0094 5.29622 11.2936C4.72769 11.5424 4.24799 11.8444 3.85712 12.1997C3.57286 12.5195 3.34189 12.8571 3.16422 13.2124C3.05762 13.4612 3.00432 13.6921 3.00432 13.9053H13.0247Z" fill="#FAA722"/>
</svg>
