<svg width="16" height="13" viewBox="0 0 16 13" fill="none" xmlns="http://www.w3.org/2000/svg">
<path d="M0.0195312 2.89013C0.0195312 2.32124 0.214965 1.84124 0.605831 1.45013C0.996698 1.05902 1.4764 0.863463 2.04493 0.863463H14.0374C14.5704 0.863463 15.0324 1.05902 15.4232 1.45013C15.8141 1.84124 16.0095 2.32124 16.0095 2.89013V10.8901C16.0095 11.459 15.8141 11.9301 15.4232 12.3035C15.0324 12.6768 14.5527 12.8635 13.9841 12.8635H2.04493C1.4764 12.8635 0.996698 12.6768 0.605831 12.3035C0.214965 11.9301 0.0195312 11.459 0.0195312 10.8901V2.89013ZM2.04493 1.8768C1.76066 1.8768 1.52081 1.97457 1.32538 2.17013C1.12995 2.36569 1.03223 2.60569 1.03223 2.89013V3.10346L8.01453 7.3168L14.9968 3.10346V2.89013C14.9968 2.60569 14.8991 2.36569 14.7037 2.17013C14.5082 1.97457 14.2862 1.8768 14.0374 1.8768H2.04493ZM14.9968 4.2768L10.3064 7.10346L14.9968 9.98346V4.2768ZM14.9968 11.1568L9.34703 7.69013L8.01453 8.49013L6.68203 7.69013L1.03223 11.1568C1.1033 11.3701 1.22766 11.5479 1.40533 11.6901C1.583 11.8324 1.7962 11.9035 2.04493 11.9035H14.0374C14.2506 11.9035 14.4461 11.8324 14.6237 11.6901C14.8014 11.5479 14.9258 11.3701 14.9968 11.1568ZM1.03223 9.98346L5.72263 7.10346L1.03223 4.2768V9.98346Z" fill="#FAA722"/>
</svg>
