<svg width="17" height="17" viewBox="0 0 17 17" fill="none" xmlns="http://www.w3.org/2000/svg">
<g clip-path="url(#clip0_17_901)">
<path d="M0.0195312 2.86196C0.0195312 2.32896 0.214965 1.86702 0.605831 1.47616C0.996698 1.08529 1.4764 0.889856 2.04493 0.889856H14.0374C14.5704 0.889856 15.0324 1.08529 15.4232 1.47616C15.8141 1.86702 16.0095 2.34672 16.0095 2.91526V10.857C16.0095 11.4255 15.8141 11.9052 15.4232 12.2961C15.0324 12.6869 14.5527 12.8824 13.9841 12.8824H4.44343C4.15916 12.8824 3.9282 12.9712 3.75053 13.1489L0.872331 16.0271C0.730198 16.1692 0.552531 16.2047 0.339331 16.1337C0.126131 16.0626 0.0195312 15.9027 0.0195312 15.654V2.86196ZM3.53733 3.87466C3.3952 3.87466 3.27083 3.92796 3.16423 4.03456C3.05763 4.14116 3.00433 4.26552 3.00433 4.40766C3.00433 4.54979 3.05763 4.66527 3.16423 4.75411C3.27083 4.84294 3.3952 4.88736 3.53733 4.88736H12.4917C12.6339 4.88736 12.7582 4.84294 12.8648 4.75411C12.9714 4.66527 13.0247 4.54979 13.0247 4.40766C13.0247 4.26552 12.9714 4.14116 12.8648 4.03456C12.7582 3.92796 12.6339 3.87466 12.4917 3.87466H3.53733ZM3.53733 6.37976C3.3952 6.37976 3.27083 6.43306 3.16423 6.53966C3.05763 6.64626 3.00433 6.76174 3.00433 6.88611C3.00433 7.01047 3.05763 7.12596 3.16423 7.23256C3.27083 7.33916 3.3952 7.39246 3.53733 7.39246H12.4917C12.6339 7.39246 12.7582 7.33916 12.8648 7.23256C12.9714 7.12596 13.0247 7.01047 13.0247 6.88611C13.0247 6.76174 12.9714 6.64626 12.8648 6.53966C12.7582 6.43306 12.6339 6.37976 12.4917 6.37976H3.53733ZM3.53733 8.88486C3.3952 8.88486 3.27083 8.92927 3.16423 9.01811C3.05763 9.10694 3.00433 9.22242 3.00433 9.36456C3.00433 9.50669 3.05763 9.63106 3.16423 9.73766C3.27083 9.84426 3.3952 9.89756 3.53733 9.89756H8.49423C8.63636 9.89756 8.76073 9.84426 8.86733 9.73766C8.97393 9.63106 9.02723 9.50669 9.02723 9.36456C9.02723 9.22242 8.97393 9.10694 8.86733 9.01811C8.76073 8.92927 8.63636 8.88486 8.49423 8.88486H3.53733Z" fill="#FAA722"/>
</g>
<defs>
<clipPath id="clip0_17_901">
<rect width="16.01" height="15.99" fill="white" transform="matrix(1 0 0 -1 0.00976562 16.8799)"/>
</clipPath>
</defs>
</svg>
