<svg width="16" height="16" viewBox="0 0 16 16" fill="none" xmlns="http://www.w3.org/2000/svg">
<path d="M4.38065 1.75978C4.24732 1.59311 4.08899 1.50978 3.90565 1.50978C3.72232 1.50978 3.54732 1.57644 3.38065 1.70978L2.43065 2.65978C2.19732 2.89311 2.04732 3.15978 1.98065 3.45978C1.91399 3.75978 1.93065 4.04311 2.03065 4.30978C2.86399 6.67644 4.16399 8.74311 5.93065 10.5098C7.69732 12.2764 9.76399 13.5764 12.1307 14.4098C12.3973 14.5098 12.6807 14.5264 12.9807 14.4598C13.2807 14.3931 13.5473 14.2431 13.7807 14.0098L14.7307 13.0598C14.864 12.8931 14.9307 12.7181 14.9307 12.5348C14.9307 12.3514 14.8473 12.2098 14.6807 12.1098L12.5307 10.4098C12.364 10.2764 12.1807 10.2431 11.9807 10.3098L9.93065 10.8098C9.66399 10.8764 9.38899 10.8681 9.10565 10.7848C8.82232 10.7014 8.58065 10.5598 8.38065 10.3598L6.08065 8.05978C5.88065 7.85978 5.73899 7.61811 5.65565 7.33478C5.57232 7.05144 5.56399 6.77644 5.63065 6.50978L6.13065 4.45978C6.19732 4.25978 6.16399 4.07644 6.03065 3.90978L4.38065 1.75978ZM2.68065 1.00978C3.04732 0.643111 3.47232 0.476444 3.95565 0.509778C4.43899 0.543111 4.83065 0.759778 5.13065 1.15978L6.83065 3.30978C6.99732 3.50978 7.10565 3.73478 7.15565 3.98478C7.20565 4.23478 7.19732 4.47644 7.13065 4.70978L6.63065 6.75978C6.56399 6.99311 6.61399 7.19311 6.78065 7.35978L9.08065 9.65978C9.24732 9.82644 9.44732 9.87644 9.68065 9.80978L11.7307 9.30978C11.964 9.24311 12.2057 9.23478 12.4557 9.28478C12.7057 9.33478 12.9307 9.44311 13.1307 9.60978L15.2807 11.3098C15.6807 11.6098 15.8973 12.0014 15.9307 12.4848C15.964 12.9681 15.7973 13.3931 15.4307 13.7598L14.4807 14.7098C14.114 15.0764 13.689 15.3181 13.2057 15.4348C12.7223 15.5514 12.2473 15.5264 11.7807 15.3598C9.28065 14.4931 7.08899 13.1181 5.20565 11.2348C3.32232 9.35144 1.94732 7.15978 1.08065 4.65978C0.913986 4.19311 0.888986 3.71811 1.00565 3.23478C1.12232 2.75144 1.36399 2.32644 1.73065 1.95978L2.68065 1.00978Z" fill="#FAA722"/>
</svg>
