<svg width="18" height="19" viewBox="0 0 18 19" fill="none" xmlns="http://www.w3.org/2000/svg">
<path d="M8.90234 5.04883C11.3633 5.04883 13.3945 7.08008 13.3945 9.54102C13.3945 12.041 11.3633 14.0332 8.90234 14.0332C6.40234 14.0332 4.41016 12.041 4.41016 9.54102C4.41016 7.08008 6.40234 5.04883 8.90234 5.04883ZM8.90234 12.4707C10.5039 12.4707 11.793 11.1816 11.793 9.54102C11.793 7.93945 10.5039 6.65039 8.90234 6.65039C7.26172 6.65039 5.97266 7.93945 5.97266 9.54102C5.97266 11.1816 7.30078 12.4707 8.90234 12.4707ZM14.6055 4.89258C14.6055 5.47852 14.1367 5.94727 13.5508 5.94727C12.9648 5.94727 12.4961 5.47852 12.4961 4.89258C12.4961 4.30664 12.9648 3.83789 13.5508 3.83789C14.1367 3.83789 14.6055 4.30664 14.6055 4.89258ZM17.5742 5.94727C17.6523 7.39258 17.6523 11.7285 17.5742 13.1738C17.4961 14.5801 17.1836 15.791 16.168 16.8457C15.1523 17.8613 13.9023 18.1738 12.4961 18.252C11.0508 18.3301 6.71484 18.3301 5.26953 18.252C3.86328 18.1738 2.65234 17.8613 1.59766 16.8457C0.582031 15.791 0.269531 14.5801 0.191406 13.1738C0.113281 11.7285 0.113281 7.39258 0.191406 5.94727C0.269531 4.54102 0.582031 3.29102 1.59766 2.27539C2.65234 1.25977 3.86328 0.947266 5.26953 0.869141C6.71484 0.791016 11.0508 0.791016 12.4961 0.869141C13.9023 0.947266 15.1523 1.25977 16.168 2.27539C17.1836 3.29102 17.4961 4.54102 17.5742 5.94727ZM15.6992 14.6973C16.168 13.5645 16.0508 10.8301 16.0508 9.54102C16.0508 8.29102 16.168 5.55664 15.6992 4.38477C15.3867 3.64258 14.8008 3.01758 14.0586 2.74414C12.8867 2.27539 10.1523 2.39258 8.90234 2.39258C7.61328 2.39258 4.87891 2.27539 3.74609 2.74414C2.96484 3.05664 2.37891 3.64258 2.06641 4.38477C1.59766 5.55664 1.71484 8.29102 1.71484 9.54102C1.71484 10.8301 1.59766 13.5645 2.06641 14.6973C2.37891 15.4785 2.96484 16.0645 3.74609 16.377C4.87891 16.8457 7.61328 16.7285 8.90234 16.7285C10.1523 16.7285 12.8867 16.8457 14.0586 16.377C14.8008 16.0645 15.4258 15.4785 15.6992 14.6973Z" fill="#FAA722"/>
</svg>
