<svg width="20" height="21" viewBox="0 0 20 21" fill="none" xmlns="http://www.w3.org/2000/svg">
<path d="M19.8096 0.969534C20.0318 1.14731 20.0762 1.36953 19.9429 1.6362L12.6762 19.8362C12.5429 20.1918 12.2874 20.3806 11.9096 20.4029C11.5318 20.4251 11.2318 20.2806 11.0096 19.9695L7.07625 13.7029L0.809579 9.76953C0.498468 9.54731 0.354023 9.24731 0.376246 8.86953C0.398468 8.49176 0.587357 8.2362 0.942912 8.10287L19.1429 0.836201C19.4096 0.702868 19.6318 0.747313 19.8096 0.969534ZM8.27625 13.3695L11.7429 18.7695L17.6762 3.96953L8.27625 13.3695ZM16.8096 3.10287L2.00958 9.0362L7.40958 12.5029L16.8096 3.10287Z" fill="white"/>
</svg>
