<svg width="14" height="15" viewBox="0 0 14 15" fill="none" xmlns="http://www.w3.org/2000/svg">
<path d="M6.80975 4.14087C8.65545 4.14087 10.1789 5.66431 10.1789 7.51001C10.1789 9.38501 8.65545 10.8792 6.80975 10.8792C4.93475 10.8792 3.44061 9.38501 3.44061 7.51001C3.44061 5.66431 4.93475 4.14087 6.80975 4.14087ZM6.80975 9.70728C8.01092 9.70728 8.97772 8.74048 8.97772 7.51001C8.97772 6.30884 8.01092 5.34204 6.80975 5.34204C5.57928 5.34204 4.61248 6.30884 4.61248 7.51001C4.61248 8.74048 5.60858 9.70728 6.80975 9.70728ZM11.0871 4.02368C11.0871 4.46313 10.7355 4.8147 10.2961 4.8147C9.85662 4.8147 9.50506 4.46313 9.50506 4.02368C9.50506 3.58423 9.85662 3.23267 10.2961 3.23267C10.7355 3.23267 11.0871 3.58423 11.0871 4.02368ZM13.3137 4.8147C13.3722 5.89868 13.3722 9.15063 13.3137 10.2346C13.2551 11.2893 13.0207 12.1975 12.259 12.9885C11.4972 13.7502 10.5597 13.9846 9.50506 14.0432C8.42108 14.1018 5.16912 14.1018 4.08514 14.0432C3.03045 13.9846 2.12225 13.7502 1.33123 12.9885C0.569515 12.1975 0.33514 11.2893 0.276546 10.2346C0.217953 9.15063 0.217953 5.89868 0.276546 4.8147C0.33514 3.76001 0.569515 2.82251 1.33123 2.06079C2.12225 1.29907 3.03045 1.0647 4.08514 1.0061C5.16912 0.94751 8.42108 0.94751 9.50506 1.0061C10.5597 1.0647 11.4972 1.29907 12.259 2.06079C13.0207 2.82251 13.2551 3.76001 13.3137 4.8147ZM11.9074 11.3772C12.259 10.5276 12.1711 8.47681 12.1711 7.51001C12.1711 6.57251 12.259 4.52173 11.9074 3.64282C11.673 3.08618 11.2336 2.61743 10.6769 2.41235C9.79803 2.06079 7.74725 2.14868 6.80975 2.14868C5.84295 2.14868 3.79217 2.06079 2.94256 2.41235C2.35662 2.64673 1.91717 3.08618 1.6828 3.64282C1.33123 4.52173 1.41912 6.57251 1.41912 7.51001C1.41912 8.47681 1.33123 10.5276 1.6828 11.3772C1.91717 11.9631 2.35662 12.4026 2.94256 12.637C3.79217 12.9885 5.84295 12.9006 6.80975 12.9006C7.74725 12.9006 9.79803 12.9885 10.6769 12.637C11.2336 12.4026 11.7023 11.9631 11.9074 11.3772Z" fill="white"/>
</svg>
