<svg width="16" height="13" viewBox="0 0 16 13" fill="none" xmlns="http://www.w3.org/2000/svg">
<path d="M13.9824 3.46313C13.9824 3.60962 13.9824 3.72681 13.9824 3.87329C13.9824 7.94556 10.9062 12.6038 5.25195 12.6038C3.49414 12.6038 1.88281 12.1057 0.535156 11.2268C0.769531 11.2561 1.00391 11.2854 1.26758 11.2854C2.70312 11.2854 4.02148 10.7874 5.07617 9.96704C3.72852 9.93774 2.58594 9.05884 2.20508 7.82837C2.41016 7.85767 2.58594 7.88696 2.79102 7.88696C3.05469 7.88696 3.34766 7.82837 3.58203 7.76978C2.17578 7.47681 1.12109 6.24634 1.12109 4.7522V4.7229C1.53125 4.95728 2.0293 5.07446 2.52734 5.10376C1.67773 4.54712 1.15039 3.60962 1.15039 2.55493C1.15039 1.96899 1.29688 1.44165 1.56055 1.0022C3.08398 2.8479 5.36914 4.07837 7.91797 4.22485C7.85938 3.99048 7.83008 3.7561 7.83008 3.52173C7.83008 1.82251 9.20703 0.445557 10.9062 0.445557C11.7852 0.445557 12.5762 0.797119 13.1621 1.41235C13.8359 1.26587 14.5098 1.0022 15.0957 0.650635C14.8613 1.38306 14.3926 1.96899 13.748 2.34985C14.3633 2.29126 14.9785 2.11548 15.5059 1.8811C15.0957 2.49634 14.5684 3.02368 13.9824 3.46313Z" fill="white"/>
</svg>
